<svg width="52" height="52" viewBox="0 0 52 52" fill="none" xmlns="http://www.w3.org/2000/svg">
<rect x="0.590569" y="0.416016" width="51.1678" height="51.1678" rx="25.5839" fill="white"/>
<path fill-rule="evenodd" clip-rule="evenodd" d="M22.6496 17.5766C21.2613 17.6392 20.0581 17.9787 19.0864 18.9462C18.1114 19.9188 17.7763 21.1267 17.7135 22.5005C17.6744 23.3579 17.4462 29.8359 18.108 31.5348C18.5544 32.6809 19.4335 33.5621 20.5901 34.0099C21.1298 34.2198 21.7458 34.362 22.6496 34.4035C30.2061 34.7454 33.0072 34.5592 34.1884 31.5348C34.398 30.9964 34.5422 30.3811 34.5821 29.4796C34.9275 21.9037 34.5261 20.2616 33.2091 18.9462C32.1645 17.9042 30.9358 17.1948 22.6496 17.5766ZM22.7173 32.8805C21.89 32.8433 21.4411 32.7053 21.1415 32.5893C20.388 32.2964 19.822 31.7327 19.531 30.9836C19.0269 29.6927 19.1941 23.5618 19.2391 22.5697C19.2832 21.598 19.48 20.71 20.1657 20.0244C21.0143 19.1779 22.1106 18.7632 29.5754 19.1001C30.5496 19.1441 31.4397 19.3405 32.1271 20.0244C32.9756 20.8709 33.3965 21.9755 33.0537 29.4117C33.0164 30.237 32.8781 30.6848 32.7618 30.9836C31.9938 32.9516 30.2271 33.225 22.7173 32.8805ZM29.6576 21.4719C29.6576 22.0323 30.1132 22.4877 30.6758 22.4877C31.2384 22.4877 31.695 22.0323 31.695 21.4719C31.695 20.9116 31.2384 20.4562 30.6758 20.4562C30.1132 20.4562 29.6576 20.9116 29.6576 21.4719ZM21.79 25.9895C21.79 28.3901 23.7409 30.3361 26.1474 30.3361C28.554 30.3361 30.5048 28.3901 30.5048 25.9895C30.5048 23.5889 28.554 21.6437 26.1474 21.6437C23.7409 21.6437 21.79 23.5889 21.79 25.9895ZM23.318 25.9896C23.318 24.4321 24.5841 23.1684 26.1463 23.1684C27.7085 23.1684 28.9746 24.4321 28.9746 25.9896C28.9746 27.548 27.7085 28.8117 26.1463 28.8117C24.5841 28.8117 23.318 27.548 23.318 25.9896Z" fill="#182925"/>
</svg>
