<svg width="416" height="260" viewBox="0 0 416 260" fill="none" xmlns="http://www.w3.org/2000/svg">
<path d="M9.50116 187.147L3.33861 192.499L2.36558 193.147L0.0951691 163.956V162.659L0.743861 161.848L2.8521 160.875L3.50078 160.226L3.66296 159.253L3.01427 157.469L2.8521 156.334L3.33861 154.55L4.79817 151.145V149.361L4.31165 148.55L3.82513 148.225L3.33861 148.063L3.01427 147.09L3.33861 146.766L4.63599 144.82L5.12251 144.009L5.7712 140.766L5.93337 133.306L5.60903 130.062L14.8528 130.873L16.4746 130.711L17.4476 129.738L18.5828 128.765L19.8802 127.954L21.0154 127.63H24.7453L26.0427 127.792L27.3401 128.278L28.4753 129.089L29.6105 129.738H31.0701L39.1787 127.63L42.0978 125.521L43.8817 121.791L47.936 109.628L50.3686 105.088L51.0173 102.493L51.1794 94.8708L50.6929 92.7626L49.2334 89.0326L48.4225 85.7891L48.909 82.5457L51.1794 78.8157L51.9903 78.1671L53.9364 77.5183L54.7472 76.7075L62.045 67.3015L62.2071 66.6528L61.5585 65.1933L61.3963 64.3824L62.3693 61.4633L64.3154 60.8146L66.5858 61.3011L68.694 61.4633L72.5862 59.3551L73.397 56.1116L72.424 52.5438L70.9644 48.976L70.4779 46.5435L70.8023 43.7865L71.9375 41.5161L73.7214 40.0566L82.3165 36.6509L87.0195 35.3535L94.1551 36.1644L96.2633 34.2184L99.3446 28.5423L103.237 24.0015L104.372 21.5689L105.183 11.5142L105.994 9.56815L107.778 7.78425L109.561 6.97339L111.021 5.83821L112.156 3.24345V2.59477L112.967 2.43258L123.346 0.648679L142.32 0L150.429 1.13523L153.834 3.89212L193.891 50.5978L195.675 52.0573L197.621 53.1925H201.675L203.621 61.139L202.324 70.7071L202.162 79.6266L206.216 86.2757L214.973 85.1404L225.352 86.7622L225.515 87.573L225.839 91.9517L225.677 94.3843L225.839 94.2221H226.001L226.163 94.0599V96.3303L226.488 98.2764L227.623 99.8981L229.407 101.195L231.191 102.006L237.191 102.979L240.597 104.115L242.056 106.547V109.791L241.57 113.358L241.732 116.926L243.84 119.197L247.246 120.332L250.813 120.007L255.679 118.548L261.03 115.629L268.652 113.196H270.274L271.896 113.521L274.815 114.818L274.977 115.467L277.085 116.44L281.14 119.197L287.302 122.116L289.086 123.413L291.032 126.17L293.14 128.278L293.627 129.413L293.789 130.711L293.627 132.008L293.789 133.306L294.6 134.927L296.06 135.9L297.843 136.387L309.196 138.333L317.142 137.846L318.926 138.171L320.385 138.982L321.521 139.955L323.791 142.063L325.251 143.198L326.71 143.847L328.17 144.171L331.9 144.495L333.521 144.82L335.143 145.306L336.765 146.279L337.413 146.766L339.035 148.874L341.63 150.982L342.603 152.118L343.576 153.415L344.711 155.361L345.036 156.01L346.657 157.307L348.603 157.956L355.415 158.118L356.388 158.28L358.982 159.253L359.955 159.415L361.415 161.848L363.199 164.118L364.496 166.389L365.307 167.2L366.604 167.686L372.929 167.524L378.281 168.335H380.065L381.362 168.173L385.254 166.389L388.173 165.74L401.147 165.578L403.093 165.902L404.715 166.551L408.445 169.957L409.256 170.281L415.905 168.984L410.877 175.47L406.012 192.012L404.066 204.337L402.931 207.743L400.498 210.662L396.606 211.473L383.47 208.554L366.929 207.743L355.252 204.986L343.252 200.445L337.251 194.607L332.548 192.823L327.197 197.526L313.574 214.554L312.763 218.446L316.331 225.095L318.115 227.203L320.061 228.987L321.358 231.258L326.061 235.636L334.17 240.501L334.981 247.637L322.169 248.124L317.953 249.421L315.358 252.34L314.709 256.232L313.25 258.989L312.277 259.313L311.142 258.989L306.276 259.8L303.357 259.151L298.492 258.827L290.708 253.962L283.248 256.232L280.815 255.097L280.167 253.151L278.869 252.34L277.085 251.854L270.274 252.827L266.706 250.394L264.112 246.34L259.246 246.177L254.543 248.124L247.894 248.772L246.921 249.583L246.759 248.772L243.516 249.583L240.434 250.881L233.785 252.34L226.001 251.529L218.217 251.854L216.271 250.556L214.325 250.232L212.865 247.799L209.46 236.609L205.081 229.636L202 227.69L199.243 225.095L194.864 218.933L190.81 203.04L186.593 196.715L176.052 173.362L174.43 166.227L176.052 158.929L178.647 156.496L180.593 153.415L183.512 150.334L187.566 148.063L191.621 142.387L189.512 137.846L183.674 141.252L180.431 141.414L171.673 139.468L157.564 134.441L152.375 131.684L147.834 127.792L145.077 122.602L141.672 118.224L136.158 115.791L130.482 116.44L125.13 120.17L122.211 126.008L120.913 133.792L118.643 136.225L115.886 138.171L91.3982 150.496L86.3708 154.226L81.5056 156.658L76.154 160.713L62.2071 166.875L60.5854 167.2L59.288 165.74L57.9907 165.091L57.0176 163.794L55.0716 163.307L53.1255 163.632L50.3686 164.443L47.936 165.902L42.9086 170.119L40.6382 171.578L38.6922 173.038L37.8813 174.335L35.1244 175.308L28.6375 180.66L26.3671 183.255L23.6101 185.201L14.2042 187.309L11.7716 187.147H9.50116Z" fill="white"/>
</svg>
