<svg width="69" height="97" viewBox="0 0 69 97" fill="none" xmlns="http://www.w3.org/2000/svg">
<path d="M68.7083 63.5785C68.7083 72.6982 65.3403 80.5743 58.6042 87.2067C51.8681 93.7356 43.7847 97 34.3542 97C24.9236 97 16.8403 93.7356 10.1042 87.2067C3.36806 80.6779 0 72.8018 0 63.5785C0 56.6352 2.02083 50.3136 6.0625 44.6138C10.2078 38.914 15.5449 34.8205 22.0737 32.3333L22.6955 33.7324C16.3739 36.0123 11.1923 39.8985 7.15064 45.391C3.21261 50.7799 1.24359 56.8424 1.24359 63.5785C1.24359 72.2837 4.55983 79.797 11.1923 86.1186C17.9284 92.4402 25.649 95.601 34.3542 95.601C41.8157 95.601 48.2409 92.492 53.6298 86.274C59.0187 79.9525 61.7132 72.3873 61.7132 63.5785C61.7132 54.977 59.2778 47.8782 54.4071 42.2821C49.64 36.5823 43.4738 33.3178 35.9087 32.4888C30.6234 31.867 26.4263 30.0016 23.3173 26.8926C20.2083 23.7837 18.7575 19.9492 18.9647 15.3894C19.172 11.1405 20.7265 7.51335 23.6282 4.50801C26.5299 1.50267 30.1052 0 34.3542 0C38.6031 0 42.2302 1.50267 45.2356 4.50801C48.2409 7.51335 49.7436 11.1405 49.7436 15.3894C49.7436 17.8766 49.1218 20.2601 47.8782 22.5401L47.101 22.2292C48.2409 20.1565 48.8109 17.9284 48.8109 15.5449C48.8109 11.6068 47.4119 8.23878 44.6138 5.4407C41.8157 2.53899 38.4477 1.08814 34.5096 1.08814C31.9188 1.08814 29.6907 2.2281 27.8253 4.50801C26.0636 6.78793 25.1827 9.8969 25.1827 13.8349C25.1827 21.5037 28.9653 25.7009 36.5305 26.4263C45.7537 27.359 53.4226 31.4525 59.5369 38.7067C65.6512 45.961 68.7083 54.2516 68.7083 63.5785Z" fill="white"/>
<path d="M33.9792 70.6379C32.773 68.6094 30.909 66.8002 28.3323 65.2651V64.6072C31.0187 62.9625 32.8827 61.0437 34.034 58.9055H34.5822C35.8432 61.0437 37.8169 62.9625 40.5033 64.6072V65.2103C37.8717 66.7454 35.9529 68.5546 34.8015 70.6379H33.9792Z" fill="#CDFF00"/>
</svg>
