<svg width="300" height="300" viewBox="0 0 300 300" fill="none" xmlns="http://www.w3.org/2000/svg">
<mask id="mask0_2917_78001" style="mask-type:luminance" maskUnits="userSpaceOnUse" x="0" y="0" width="300" height="300">
<rect width="300" height="300" fill="white"/>
</mask>
<g mask="url(#mask0_2917_78001)">
<path d="M306.828 276.297C314.064 261.978 293.384 190.383 149.999 190.383C46.5036 190.383 -0.997959 248.985 9.50368 278.684" fill="url(#paint0_radial_2917_78001)"/>
<mask id="mask1_2917_78001" style="mask-type:luminance" maskUnits="userSpaceOnUse" x="8" y="190" width="301" height="89">
<path d="M306.828 276.297C314.064 261.978 293.384 190.383 149.999 190.383C46.5036 190.383 -0.997959 248.985 9.50368 278.684" fill="white"/>
</mask>
<g mask="url(#mask1_2917_78001)">
<ellipse opacity="0.671968" cx="127.886" cy="230.532" rx="7.88551" ry="4.38001" fill="url(#paint1_linear_2917_78001)"/>
<ellipse opacity="0.451707" cx="212.057" cy="241.059" rx="12.4416" ry="6.83282" fill="url(#paint2_linear_2917_78001)"/>
<ellipse opacity="0.729957" cx="66.7795" cy="205.626" rx="12.4416" ry="6.83282" fill="url(#paint3_linear_2917_78001)"/>
</g>
<path opacity="0.716378" d="M108.765 198.647C103.93 204.119 123.065 209.175 158.269 210.362C196.605 220.806 214.026 223.64 221.068 218.241C228.11 212.843 197.88 195.998 174.214 190.675C150.547 185.353 137.546 188.802 123.036 192.627C121.072 193.145 122.046 192.749 117.589 194.245C113.132 195.742 109.941 197.316 108.765 198.647Z" fill="url(#paint4_linear_2917_78001)"/>
<path d="M160.576 167.683C160.576 167.683 145.735 184.217 154.821 194.411C143.25 195.14 135.631 200.663 135.631 200.663L129.33 177.938L160.576 167.683Z" fill="url(#paint5_linear_2917_78001)"/>
<path d="M136.09 199.427C136.09 199.427 124.54 194.497 119.924 194.489C115.307 194.481 129.589 177.212 129.589 177.212L137.934 197.845L136.09 199.427Z" fill="url(#paint6_linear_2917_78001)"/>
<path fill-rule="evenodd" clip-rule="evenodd" d="M46.2031 175.477C76.3892 205.31 125.106 205.14 155.233 175.013C185.36 144.886 185.53 96.1689 155.697 65.9829L46.2031 175.477Z" fill="url(#paint7_linear_2917_78001)"/>
<ellipse cx="101.278" cy="121.709" rx="17.1108" ry="77.4238" transform="rotate(45 101.278 121.709)" fill="url(#paint8_linear_2917_78001)"/>
<mask id="mask2_2917_78001" style="mask-type:luminance" maskUnits="userSpaceOnUse" x="45" y="65" width="113" height="113">
<ellipse cx="101.278" cy="121.709" rx="17.1108" ry="77.4238" transform="rotate(45 101.278 121.709)" fill="white"/>
</mask>
<g mask="url(#mask2_2917_78001)">
<path d="M123.574 126.632L92.1928 111.514L104.306 142.914" fill="url(#paint9_linear_2917_78001)"/>
</g>
<ellipse cx="89.1769" cy="108.957" rx="11.0605" ry="11.0989" transform="rotate(-45 89.1769 108.957)" fill="url(#paint10_linear_2917_78001)"/>
<path fill-rule="evenodd" clip-rule="evenodd" d="M54.0178 100.167C54.5597 100.168 55.0409 99.9282 55.4015 99.5676C55.8222 99.1468 56.032 98.5753 56.0009 97.9431C55.6601 91.9525 57.9081 86.0866 62.1455 81.8492C66.3227 77.672 72.1285 75.4239 78.0587 75.7044C79.2327 75.7364 80.2547 74.835 80.2829 73.6611C80.3111 72.4873 79.4064 71.4624 78.2324 71.4304C71.1282 71.1179 64.1492 73.8156 59.1305 78.8343C54.0518 83.9131 51.3842 90.9824 51.757 98.147C51.8492 99.321 52.8441 100.256 54.0178 100.167ZM67.159 104.114C67.6803 104.039 68.1357 103.839 68.4634 103.511C68.8806 103.094 69.1362 102.456 69.0513 101.775C68.6354 98.6177 69.6407 95.5706 71.7862 93.4251C73.9018 91.3095 76.8872 90.3021 79.9806 90.6541C81.1572 90.8175 82.2064 89.9597 82.2579 88.7597C82.3413 87.5916 81.4098 86.4814 80.2035 86.3478C75.842 85.86 71.6075 87.287 68.6278 90.2667C65.5586 93.3359 64.1337 97.6321 64.7172 102.089C64.8806 103.266 65.959 104.165 67.159 104.114Z" fill="url(#paint11_linear_2917_78001)"/>
<path d="M39.0728 97.5854C38.7138 97.9444 38.2355 98.1843 37.668 98.2152C36.5032 98.2473 35.5492 97.3532 35.4619 96.1887C35.0941 85.5874 39.2055 75.2164 46.7161 67.7058C50.5091 63.9128 54.9352 61.0102 59.7585 59.105C60.1368 58.9086 63.3676 58.4526 63.8317 59.8383C64.2957 61.2241 61.2026 63.1186 61.2026 63.1186C56.9607 64.8144 53.0663 67.3766 49.7266 70.7164C43.0539 77.3891 39.4225 86.6243 39.7327 96.0908C39.7019 96.5986 39.4618 97.1964 39.0728 97.5854Z" fill="url(#paint12_linear_2917_78001)"/>
<mask id="mask3_2917_78001" style="mask-type:luminance" maskUnits="userSpaceOnUse" x="35" y="58" width="29" height="41">
<path d="M39.0728 97.5854C38.7138 97.9444 38.2355 98.1843 37.668 98.2152C36.5032 98.2473 35.5492 97.3532 35.4619 96.1887C35.0941 85.5874 39.2055 75.2164 46.7161 67.7058C50.5091 63.9128 54.9352 61.0102 59.7585 59.105C60.1368 58.9086 63.3676 58.4526 63.8317 59.8383C64.2957 61.2241 61.2026 63.1186 61.2026 63.1186C56.9607 64.8144 53.0663 67.3766 49.7266 70.7164C43.0539 77.3891 39.4225 86.6243 39.7327 96.0908C39.7019 96.5986 39.4618 97.1964 39.0728 97.5854Z" fill="white"/>
</mask>
<g mask="url(#mask3_2917_78001)">
</g>
<path fill-rule="evenodd" clip-rule="evenodd" d="M80.7335 53.8389C80.0973 53.2028 79.0659 53.2028 78.4298 53.8389L74.2066 58.0621L69.9839 53.8393C69.3477 53.2032 68.3163 53.2032 67.6802 53.8393C67.044 54.4755 67.044 55.5069 67.6802 56.143L71.9029 60.3658L67.6792 64.5895C67.043 65.2257 67.043 66.2571 67.6792 66.8932C68.3153 67.5294 69.3467 67.5294 69.9829 66.8932L74.2066 62.6695L78.4308 66.8936C79.0669 67.5298 80.0983 67.5298 80.7345 66.8936C81.3706 66.2575 81.3706 65.2261 80.7345 64.5899L76.5103 60.3658L80.7335 56.1426C81.3696 55.5065 81.3696 54.4751 80.7335 53.8389Z" fill="#D3D3D3"/>
<path d="M199.507 173.449C199.507 173.449 198.747 175.668 198.747 177.228C197.987 190.811 199.871 214.956 199.871 214.956H202.798L207.119 179.635L212.975 214.956H215.854C215.854 214.956 216.234 191.566 215.094 177.228C215.094 175.684 214.431 174.204 214.431 174.204L199.507 173.449Z" fill="url(#paint13_linear_2917_78001)"/>
<path d="M194.565 154.713L190.867 152.097L190.903 150.058L200.295 144.667L202.632 141.915L206.105 139.71L206.336 140.092L203.759 142.69L202.739 142.822C202.739 142.822 202.719 143.241 202.719 143.954C202.719 144.667 202.182 145.454 202.182 145.454L194.818 150.881L196.404 151.671L194.565 154.713Z" fill="#FFE9E9"/>
<path d="M215.474 159.974L218.388 163.383L219.781 164.125L230.68 154.265L230.231 151.293L219.781 159.974L217.374 157.759L215.474 159.974Z" fill="#FFE9E9"/>
<path d="M230.387 154.315L235.066 152.715L236.002 151.794V149.952C236.002 149.952 235.534 149.031 235.066 149.031C234.598 149.031 230.387 150.873 230.387 150.873C230.387 150.873 229.919 152.255 229.919 152.715C229.919 153.176 230.387 154.315 230.387 154.315Z" fill="#FFE9E9"/>
<path d="M232.197 144.5H235.246C235.664 144.5 236.002 144.839 236.002 145.257V152.802C236.002 153.219 235.664 153.558 235.246 153.558H232.197C231.779 153.558 231.44 153.219 231.44 152.802V145.257C231.44 144.839 231.779 144.5 232.197 144.5Z" fill="#E9E9E9"/>
<path d="M230.409 149.154C230.409 149.154 232.372 148.273 232.862 148.273C233.353 148.273 231.391 150.161 231.391 150.161C231.391 150.161 231.391 152.048 230.409 152.048C229.428 152.048 230.409 149.154 230.409 149.154Z" fill="#FFE9E9"/>
<path d="M218.669 157.332L215.647 161.106L213.488 159.119C213.488 159.119 214.387 164.985 214.784 167.9C215.18 170.815 214.784 175.592 214.784 175.592C214.784 175.592 209.68 176.457 206.581 176.686C203.482 176.914 199.073 175.515 199.073 175.515C199.073 175.515 197.838 166.39 199.073 157.194L193.805 155.258L196.086 151.016C196.086 151.016 197.838 151.671 199.888 151.887C201.938 152.104 203.69 151.887 203.69 151.887L209.392 151.293C209.392 151.293 213.103 151.485 213.954 152.327C214.805 153.169 218.669 157.332 218.669 157.332Z" fill="url(#paint14_linear_2917_78001)"/>
<path fill-rule="evenodd" clip-rule="evenodd" d="M208.011 147.145H204.794V151.768V151.768H204.794C204.816 151.801 206.081 153.763 206.081 154.414C206.081 155.066 207.985 151.811 208.01 151.768H208.011V151.768V147.145Z" fill="#FECECD"/>
<ellipse cx="206.217" cy="146.434" rx="2.88999" ry="4.5" fill="#FFE9E9"/>
<path fill-rule="evenodd" clip-rule="evenodd" d="M203.045 146.934C203.276 146.076 203.276 144.184 203.739 144.123C204.201 144.061 205.126 144.419 206.051 143.724C206.513 143.343 206.744 143.295 206.744 143.103C209.056 143.56 207.674 144.937 208.825 146.455C208.945 146.613 209.288 146.455 209.288 146.455C209.288 146.455 209.288 142.719 209.056 142.385C208.825 142.052 207.9 140.71 207.438 141.667C207.438 141.188 206.513 140.694 205.588 141.061C204.664 141.428 203.276 142.146 203.045 143.103C202.814 144.061 202.583 145.976 203.045 146.934Z" fill="#513450"/>
<path d="M200.513 214.703L199.583 215.96C199.04 216.694 198.747 217.583 198.747 218.496C198.747 218.554 198.794 218.6 198.851 218.6H203.214C203.457 218.6 203.654 218.403 203.654 218.161C203.654 217.167 203.429 216.187 202.997 215.293L202.712 214.703H200.513Z" fill="#677285"/>
<path d="M215.573 214.703L216.503 215.96C217.046 216.694 217.339 217.583 217.339 218.496C217.339 218.554 217.292 218.6 217.235 218.6H212.872C212.629 218.6 212.432 218.403 212.432 218.161C212.432 217.167 212.657 216.187 213.089 215.293L213.374 214.703H215.573Z" fill="#677285"/>
</g>
<defs>
<radialGradient id="paint0_radial_2917_78001" cx="0" cy="0" r="1" gradientUnits="userSpaceOnUse" gradientTransform="translate(138.187 221.006) rotate(-90) scale(51.3403 536.198)">
<stop stop-color="#EBEDF0" stop-opacity="0.24"/>
<stop offset="0.536775" stop-color="#EBEDF0" stop-opacity="0.845525"/>
<stop offset="1" stop-color="#E0E4E7" stop-opacity="0.01"/>
</radialGradient>
<linearGradient id="paint1_linear_2917_78001" x1="121.538" y1="229.371" x2="123.941" y2="234.509" gradientUnits="userSpaceOnUse">
<stop stop-color="#E1E7EA"/>
<stop offset="1" stop-color="#D0D6DC"/>
</linearGradient>
<linearGradient id="paint2_linear_2917_78001" x1="201.61" y1="240.421" x2="206.006" y2="249.59" gradientUnits="userSpaceOnUse">
<stop stop-color="#E1E7EA"/>
<stop offset="1" stop-color="#D0D6DC"/>
</linearGradient>
<linearGradient id="paint3_linear_2917_78001" x1="58.8465" y1="205.736" x2="61.3338" y2="215.646" gradientUnits="userSpaceOnUse">
<stop stop-color="#FBFBFB"/>
<stop offset="1" stop-color="#D9DFE3"/>
</linearGradient>
<linearGradient id="paint4_linear_2917_78001" x1="343.483" y1="213.38" x2="338.797" y2="132.939" gradientUnits="userSpaceOnUse">
<stop stop-color="#D5E1F0" stop-opacity="0.01"/>
<stop offset="1" stop-color="#D9DDE2"/>
</linearGradient>
<linearGradient id="paint5_linear_2917_78001" x1="123.431" y1="186.908" x2="149.037" y2="198.039" gradientUnits="userSpaceOnUse">
<stop stop-color="#F8FBFF"/>
<stop offset="1" stop-color="#D9DDE2"/>
</linearGradient>
<linearGradient id="paint6_linear_2917_78001" x1="125.953" y1="203.409" x2="139.891" y2="191.475" gradientUnits="userSpaceOnUse">
<stop stop-color="#F8FBFF"/>
<stop offset="1" stop-color="#D9DDE2"/>
</linearGradient>
<linearGradient id="paint7_linear_2917_78001" x1="79.3044" y1="226.899" x2="196.675" y2="142.688" gradientUnits="userSpaceOnUse">
<stop stop-color="#F8FBFF"/>
<stop offset="1" stop-color="#D9DDE2"/>
</linearGradient>
<linearGradient id="paint8_linear_2917_78001" x1="93.4968" y1="-1.0648" x2="24.806" y2="24.8524" gradientUnits="userSpaceOnUse">
<stop stop-color="#E6ECF3"/>
<stop offset="1" stop-color="#D9DDE2"/>
</linearGradient>
<linearGradient id="paint9_linear_2917_78001" x1="98.2958" y1="139.217" x2="117.221" y2="124.788" gradientUnits="userSpaceOnUse">
<stop stop-color="white"/>
<stop offset="1" stop-color="#CCD7E7"/>
</linearGradient>
<linearGradient id="paint10_linear_2917_78001" x1="74.0514" y1="105.523" x2="87.6108" y2="123.166" gradientUnits="userSpaceOnUse">
<stop stop-color="#FDFDFD"/>
<stop offset="1" stop-color="#D7DBE0"/>
</linearGradient>
<linearGradient id="paint11_linear_2917_78001" x1="107.867" y1="61.0095" x2="70.2227" y2="42.1481" gradientUnits="userSpaceOnUse">
<stop stop-color="#EEEEEE"/>
<stop offset="1" stop-color="#D8D8D8"/>
</linearGradient>
<linearGradient id="paint12_linear_2917_78001" x1="92.9216" y1="41.711" x2="69.4604" y2="25.4508" gradientUnits="userSpaceOnUse">
<stop stop-color="#EEEEEE"/>
<stop offset="1" stop-color="#D8D8D8"/>
</linearGradient>
<linearGradient id="paint13_linear_2917_78001" x1="215.884" y1="214.956" x2="215.884" y2="173.76" gradientUnits="userSpaceOnUse">
<stop stop-color="#A1A7B8"/>
<stop offset="1" stop-color="#7B8195"/>
</linearGradient>
<linearGradient id="paint14_linear_2917_78001" x1="231.247" y1="162.751" x2="209.71" y2="189.689" gradientUnits="userSpaceOnUse">
<stop stop-color="#E5E9F0"/>
<stop offset="1" stop-color="#D2DAE8"/>
</linearGradient>
</defs>
</svg>
