<svg width="52" height="52" viewBox="0 0 52 52" fill="none" xmlns="http://www.w3.org/2000/svg">
<rect x="0.241623" y="0.416016" width="51.1678" height="51.1678" rx="25.5839" fill="white"/>
<path d="M29.3393 21.8841C31.4861 23.4255 34.0627 24.2537 36.7055 24.2518V18.9902C34.7519 18.9902 32.8783 18.2141 31.4969 16.8327C30.1154 15.4513 29.3393 13.5777 29.3393 11.624H24.0778V28.461C24.0777 29.1202 23.9008 29.7672 23.5655 30.3346C23.2302 30.902 22.7487 31.3691 22.1714 31.687C21.594 32.005 20.9419 32.1622 20.2831 32.1422C19.6243 32.1223 18.9829 31.9259 18.4259 31.5735C17.8688 31.2212 17.4166 30.7259 17.1162 30.1392C16.8159 29.5525 16.6784 28.8959 16.7183 28.238C16.7582 27.5801 16.9739 26.945 17.3429 26.3988C17.7119 25.8527 18.2207 25.4156 18.8162 25.1331V19.6611C17.1412 19.9614 15.5865 20.7333 14.3348 21.8862C13.0831 23.0391 12.1863 24.5252 11.7496 26.1699C11.3128 27.8147 11.3544 29.5499 11.8693 31.1719C12.3842 32.7939 13.3512 34.2353 14.6566 35.327C15.9621 36.4187 17.5519 37.1153 19.2394 37.3351C20.9269 37.5549 22.6421 37.2888 24.1836 36.5679C25.7251 35.847 27.029 34.7014 27.9423 33.2654C28.8555 31.8295 29.3402 30.1628 29.3393 28.461V21.8841Z" stroke="#182925" stroke-width="1.40309" stroke-linecap="round" stroke-linejoin="round"/>
</svg>
