<svg width="53" height="52" viewBox="0 0 53 52" fill="none" xmlns="http://www.w3.org/2000/svg">
<rect x="0.939514" y="0.416016" width="51.1678" height="51.1678" rx="25.5839" fill="white"/>
<path fill-rule="evenodd" clip-rule="evenodd" d="M23.3609 32.396C29.797 32.396 33.3173 27.474 33.3173 23.2061C33.3173 23.066 33.3173 22.9267 33.3071 22.7881C33.9919 22.3316 34.5829 21.7649 35.0528 21.1163C34.4149 21.3776 33.7369 21.5492 33.0436 21.6247C33.7736 21.2209 34.3202 20.5865 34.582 19.8379C33.8947 20.2142 33.1433 20.4795 32.3596 20.6219C31.0344 19.3216 28.818 19.2586 27.4083 20.4818C26.5001 21.2705 26.1137 22.4465 26.396 23.5682C23.5826 23.4375 20.9611 22.2112 19.1839 20.1937C18.2552 21.6696 18.7302 23.5572 20.2678 24.5049C19.7109 24.4899 19.166 24.3514 18.679 24.1011V24.142C18.6799 25.6793 19.8542 27.0033 21.4865 27.3079C20.9714 27.4378 20.4307 27.4567 19.9071 27.363C20.365 28.6791 21.6792 29.5804 23.1758 29.6063C21.9367 30.5053 20.406 30.9933 18.83 30.9917C18.552 30.9909 18.274 30.976 17.9968 30.9453C19.5975 31.893 21.4592 32.396 23.3609 32.3936" fill="#182925"/>
</svg>
